<svg xmlns="http://www.w3.org/2000/svg" width="800" height="800" viewBox="0 0 800 800">
    <path fill="none" stroke="#000" stroke-width="2" stroke-miterlimit="10" d="M6.526 441.12c0-320.2 98.555-368.102 98.555-368.102S174.069 6 400.459 6c236.818 7.884 293.98 68.003 293.98 68.003s126.079 79.757 96.584 367.117c-11.756 232.665-89.685 277.432-89.685 277.432s-86.335 75.887-300.592 75.887-303.549-77.858-303.549-77.858S13.533 660.48 6.526 441.12z"/>
    <path fill="none" stroke="#000" stroke-width="2" stroke-miterlimit="10" d="M66.991 376.976c3.667-247.333 103-276 103-276s58.752-37.333 230.709-35c171.957 2.333 229.291 73 229.291 73 46 66.667-21 82.5-21 82.5-73.667 20.167-118 7.5-118 7.5-109.667-16.667-209-81.333-222-87-9 1.667.333 49 25 66 0 0 80.667 52.333 160 72 0 0 115.333 32.333 143 49 0 0 61.667 27.333 69 93 0 0 2.667 25.667-46 57 0 0-37.333 24-37 58 0 0 5.667 43.333 53 20 39.333-25.333 68-72 97-128 0 0 3.667 209.333-91 262s-358 63.333-434 0c0 0-51.333-24.667-52-72 0 0-2-26.667 39-38 0 0 70.333-24 176 6 0 0 125 46.667 162 72 0 0 13.667-22.667-19-60 0 0-92-70.667-273-110 0 0-129.667-45.333-99-128 0 0 17.333-28 60-56 0 0 37.333-32 4-63-28-18.333-57 16-57 16-54.334 53.667-82 119-82 119z"/>
    <path fill="none" stroke="#000" stroke-width="2" stroke-miterlimit="10" d="M296.96 279.285h85.333l122.667 46s109.333 32 118 41.333c0 0-68.667-3.333-127.333 15.333 0 0-60 12-100.667 9.333 0 0-20.667-4.667-19.333-34.667 0 0 125.333-20 127.333-28 0 0-112.43 10.029-145.333 1.333 0 .002-54.667.002-60.667-50.665zM177.394 438.691c53.333 6 120.667-12 120.667-12s61-15.667 95.333-12.667c0 0 32.333-4.333 33.333 36 0 0-86.333 5-124.667 28.667 0 0 119.667-12.333 148 0 0 0 46.333 9 54.667 50h-84s-82.333-39.667-124-46c-41.667-6.334-119.333-44-119.333-44z"/></svg>